<?xml version="1.0" standalone="no"?>
<!DOCTYPE svg PUBLIC "-//W3C//DTD SVG 20010904//EN"
 "http://www.w3.org/TR/2001/REC-SVG-20010904/DTD/svg10.dtd">
<svg version="1.0" xmlns="http://www.w3.org/2000/svg"
 width="753.000000pt" height="400.000000pt" viewBox="0 0 753.000000 400.000000"
 preserveAspectRatio="xMidYMid meet">
<metadata>
Created by potrace 1.14, written by Peter Selinger 2001-2017
</metadata>
<g transform="translate(0.000000,400.000000) scale(0.100000,-0.100000)"
fill="#000000" stroke="none">
<path d="M0 2000 l0 -2000 3765 0 3765 0 0 2000 0 2000 -3765 0 -3765 0 0
-2000z m3735 1447 l0 -258 -287 0 c-158 -1 -296 -3 -308 -6 -19 -5 -20 -13
-20 -144 0 -77 -3 -139 -8 -139 -4 0 -133 117 -287 260 -246 228 -284 260
-309 258 -32 -3 -61 -36 -72 -80 -5 -24 2 -36 52 -88 l57 -60 -297 0 c-333 0
-334 0 -276 -66 17 -20 29 -39 26 -42 -3 -2 -29 -9 -57 -13 -78 -12 -77 -9
-113 -179 -8 -41 -18 -100 -22 -131 l-6 -56 46 -12 c25 -6 46 -16 46 -21 0 -6
-29 -24 -65 -41 -58 -27 -109 -74 -103 -96 5 -18 -15 -54 -27 -49 -19 7 -27
-21 -13 -43 9 -15 4 -30 -36 -89 l-47 -71 -32 11 c-41 14 -42 15 -28 31 8 11
6 18 -9 32 -14 13 -17 22 -10 35 6 10 16 45 24 77 8 32 31 103 51 158 20 55
56 154 80 220 24 66 85 219 135 340 138 331 175 437 137 395 -13 -14 -324
-790 -382 -954 -16 -43 -39 -94 -52 -113 -13 -19 -30 -50 -38 -69 -7 -18 -33
-52 -56 -74 -41 -39 -41 -40 -37 -97 4 -38 0 -71 -9 -95 -9 -21 -12 -49 -9
-63 l6 -25 -463 0 c-355 0 -467 3 -480 13 -16 11 -17 37 -15 287 l3 275 573 3
c664 3 613 -9 506 118 -139 168 -182 259 -191 415 -9 137 24 240 111 350 33
43 62 65 124 97 44 23 97 46 118 51 22 5 474 8 1054 8 l1015 -2 0 -258z m536
241 c59 -33 116 -112 133 -183 14 -58 7 -170 -14 -227 -43 -116 -148 -192
-264 -191 -75 0 -121 19 -181 74 -62 58 -88 109 -77 152 l9 32 7 -43 c11 -60
62 -132 115 -161 65 -36 161 -40 229 -11 61 26 116 83 132 137 17 55 25 219
12 227 -7 4 -14 -8 -18 -31 -12 -68 -20 -64 -20 10 0 73 -25 149 -59 177 -12
10 -13 4 -8 -37 4 -39 0 -62 -21 -114 -21 -54 -24 -71 -16 -99 23 -81 5 -168
-47 -222 -36 -37 -43 -35 -43 12 0 22 5 40 10 40 6 0 10 9 10 20 0 14 7 20 23
21 l22 0 -22 11 c-13 6 -23 20 -23 30 0 11 -4 16 -10 13 -6 -4 -10 30 -10 94
0 61 -4 101 -10 101 -6 0 -10 -40 -10 -100 0 -87 -2 -99 -16 -93 -13 5 -15 2
-9 -15 5 -18 2 -22 -14 -22 -12 0 -21 -4 -21 -10 0 -5 7 -10 15 -10 8 0 15 -9
15 -20 0 -11 5 -20 10 -20 6 0 10 -18 10 -40 0 -46 -8 -49 -38 -17 -53 57 -74
150 -51 227 10 33 9 44 -11 86 -18 35 -23 64 -22 111 0 55 -2 62 -14 52 -23
-19 -17 11 8 38 20 21 29 23 136 23 99 0 120 -3 153 -22z m501 -13 c6 -24 76
-280 94 -346 3 -11 -10 -28 -38 -48 -24 -18 -114 -99 -200 -181 -87 -83 -162
-150 -167 -150 -5 0 -22 48 -39 108 l-30 107 21 50 c35 87 49 165 43 234 -6
74 -47 168 -96 224 l-32 37 218 -2 218 -3 8 -30z m1647 10 c215 -68 351 -257
351 -491 0 -157 -39 -268 -126 -362 -42 -45 -61 -57 -134 -82 -57 -20 -95 -28
-116 -24 -42 8 -93 -37 -131 -114 -24 -49 -28 -69 -28 -142 1 -64 6 -96 22
-131 48 -106 150 -179 250 -179 65 0 109 15 95 33 -5 6 -13 39 -16 72 -5 54
-3 64 22 100 28 40 77 75 109 77 10 1 31 -2 47 -6 l29 -7 -5 64 c-7 79 -16 98
-32 65 -16 -31 -52 -33 -106 -6 -40 20 -90 76 -90 99 0 5 16 9 37 9 34 0 35
-1 20 -18 -16 -17 -15 -20 11 -45 35 -34 79 -41 73 -12 -3 20 -3 20 18 1 19
-17 21 -17 21 -2 0 9 -7 30 -15 46 l-15 29 43 6 c23 3 152 5 287 3 l245 -3 0
-285 0 -285 -343 -3 c-588 -4 -653 7 -777 132 -104 106 -236 258 -246 285 -5
13 -14 58 -20 100 -6 42 -17 93 -25 114 -8 22 -14 73 -14 125 1 81 2 86 16 67
32 -40 84 -155 84 -184 0 -38 20 -55 44 -38 27 20 7 103 -58 238 l-55 114 161
5 160 5 24 28 c41 48 27 135 -25 156 -28 11 -70 13 -233 12 l-108 -1 0 -60 c0
-57 -1 -60 -24 -60 -44 0 -56 9 -46 36 14 36 -18 124 -51 143 -31 17 -74 8
-89 -19 -6 -10 -11 -53 -12 -95 -1 -53 -4 -73 -12 -65 -18 18 -40 11 -67 -21
l-26 -32 -16 33 c-10 18 -17 39 -17 46 0 16 -26 24 -70 20 -19 -1 -49 3 -67
11 -29 12 -32 11 -38 -8 -8 -25 11 -49 39 -49 31 0 46 -19 46 -57 0 -23 5 -35
18 -39 9 -3 38 -15 64 -26 31 -14 57 -19 77 -15 38 8 50 -10 56 -88 2 -30 6
-59 9 -63 6 -10 -29 -315 -43 -372 -6 -25 -20 -100 -31 -168 -30 -188 -47
-212 -153 -212 -40 0 -82 3 -94 6 l-23 6 0 797 c0 439 3 801 7 804 3 4 237 7
519 7 l513 0 80 -25z m-2434 -610 c45 -23 75 -31 131 -33 86 -5 129 8 189 54
25 19 45 28 45 21 0 -6 -18 -75 -40 -152 -22 -77 -40 -154 -40 -170 0 -27 -29
-58 -241 -255 -132 -124 -249 -229 -259 -234 -15 -7 -31 2 -80 45 -54 49 -60
57 -56 89 5 48 188 739 203 762 2 4 23 -16 47 -45 27 -34 63 -62 101 -82z
m987 -145 c22 -85 43 -165 46 -177 6 -31 -18 -30 -46 2 -14 16 -32 25 -52 25
-36 0 -41 23 -9 42 11 7 29 30 40 51 22 41 15 46 -37 27 -22 -9 -31 -7 -48 9
-12 10 -36 26 -54 35 -33 17 -33 17 -62 -14 -17 -18 -34 -49 -40 -69 -7 -28
-18 -41 -42 -52 -47 -21 -45 -36 4 -43 67 -10 71 -15 58 -72 -11 -49 -60 -114
-87 -114 -7 0 -13 -6 -13 -13 0 -8 -9 -22 -20 -32 -23 -21 -27 -65 -6 -65 9 0
15 -19 19 -60 4 -33 10 -73 13 -88 6 -24 5 -25 -7 -10 -12 16 -41 18 -235 23
-243 6 -270 2 -279 -42 -4 -15 -19 -64 -33 -108 l-27 -80 -46 -3 c-41 -3 -50
1 -92 39 -47 40 -47 42 -30 62 10 11 149 142 308 290 160 149 328 308 375 352
47 45 117 110 155 146 39 36 95 88 125 117 l55 51 13 -37 c7 -20 31 -107 54
-192z m-2205 66 c70 -66 176 -166 236 -223 l107 -104 0 -285 0 -284 -242 2
-243 3 -3 508 c-1 304 1 507 7 505 5 -1 67 -57 138 -122z m-712 14 c8 -16 15
-40 15 -53 0 -14 7 -44 15 -67 18 -50 18 -53 5 -45 -5 3 -24 -17 -42 -44 -30
-46 -37 -51 -70 -51 -20 0 -48 -4 -62 -10 -14 -5 -26 -6 -26 -1 0 13 49 43 60
36 6 -3 10 -1 10 4 0 6 14 10 32 9 29 -3 35 2 59 47 20 36 25 54 18 67 -13 24
-52 32 -90 19 -45 -15 -54 -4 -20 25 17 14 36 41 43 59 15 43 33 44 53 5z m79
-82 c42 -67 84 -173 92 -233 4 -25 5 -45 2 -45 -10 0 -104 33 -110 39 -5 4 8
13 27 20 19 7 35 17 35 23 0 6 -18 43 -40 83 -39 71 -67 165 -49 165 5 0 24
-24 43 -52z m4296 -303 c58 -30 83 -168 45 -250 -47 -98 -158 -94 -211 7 -18
35 -18 141 1 177 36 71 104 98 165 66z m-622 -119 c33 -68 33 -68 35 -234 l2
-167 -135 -1 c-74 -1 -127 0 -117 3 13 3 17 15 17 47 0 23 13 80 30 126 16 47
30 92 30 101 0 9 11 41 24 70 14 30 31 71 40 92 9 22 21 37 28 35 7 -2 28 -34
46 -72z m-671 -175 c24 -85 45 -170 46 -190 l2 -36 -56 -3 c-56 -3 -57 -2 -78
34 -13 22 -26 67 -31 108 -5 39 -16 93 -24 120 -17 53 -22 146 -7 146 5 0 14
-7 21 -15 7 -9 23 -15 34 -13 16 2 22 12 25 38 l4 35 10 -35 c5 -19 30 -104
54 -189z m-4141 -365 c1 0 4 -14 8 -29 l7 -28 -42 21 c-22 12 -44 19 -47 16
-3 -4 -13 -50 -22 -104 -16 -93 -18 -97 -41 -94 -13 1 -36 11 -51 22 -40 29
-80 26 -115 -10 -30 -31 -96 -64 -107 -53 -3 4 -6 30 -6 59 0 29 -4 64 -10 78
-10 28 -45 66 -60 66 -6 0 -10 -40 -11 -97 l0 -98 -29 105 c-16 58 -31 115
-35 127 -3 15 0 23 12 26 15 3 546 -3 549 -7z m814 -3 c4 -4 28 -82 54 -173
55 -190 65 -220 77 -220 9 0 29 64 79 255 18 66 36 128 42 138 9 17 25 18 261
14 211 -3 252 -6 255 -19 3 -15 -88 -368 -183 -713 -31 -110 -76 -276 -100
-370 -133 -504 -128 -489 -158 -499 -42 -15 -77 3 -122 65 -22 31 -67 92 -101
135 -33 44 -97 133 -142 199 l-82 120 22 17 c13 9 34 18 47 20 26 3 36 17 46
62 4 21 76 99 241 266 129 130 234 242 234 249 0 25 -27 7 -110 -76 -366 -368
-421 -414 -472 -394 -27 10 -57 70 -78 154 -8 28 -27 64 -51 91 -43 49 -50 76
-19 76 20 0 20 4 14 98 -7 105 -20 138 -59 148 -43 11 -68 -16 -92 -97 -12
-41 -25 -82 -28 -91 -5 -13 -2 -18 10 -18 9 0 13 -4 10 -10 -3 -5 -22 -10 -41
-10 -50 0 -73 -16 -94 -63 -21 -46 -62 -274 -80 -437 -13 -124 -46 -267 -93
-405 l-34 -100 -79 -3 c-118 -4 -117 -5 -142 85 -11 43 -51 186 -87 318 -37
132 -85 308 -106 390 -22 83 -46 170 -54 195 -12 36 -13 70 -7 165 l7 120 38
-2 c21 -2 51 -12 67 -23 29 -21 80 -27 80 -10 0 13 44 55 61 56 8 1 22 5 32 9
15 6 17 0 17 -54 0 -60 1 -63 43 -101 23 -22 45 -40 49 -40 23 0 51 214 42
315 -4 39 -4 68 -1 65 3 -3 20 -61 37 -129 32 -127 44 -161 59 -161 5 0 30 88
56 196 37 151 52 197 66 202 26 10 560 5 569 -5z m1600 8 c0 -5 -60 -64 -132
-131 -73 -68 -167 -156 -209 -197 -53 -51 -82 -71 -93 -67 -11 4 -16 1 -16
-12 0 -11 -61 -79 -152 -166 -84 -81 -153 -146 -155 -145 -1 2 20 84 48 182
27 99 68 252 90 339 22 88 44 167 50 177 8 17 27 19 182 22 94 1 220 4 280 5
59 1 107 -2 107 -7z m1870 -15 c153 -39 268 -133 337 -272 l38 -79 0 -155 0
-155 -43 -80 c-45 -83 -100 -147 -164 -192 -21 -14 -38 -34 -38 -44 0 -33 39
-43 180 -47 137 -4 160 -10 160 -43 0 -19 -11 -24 -80 -34 -46 -7 -74 -25 -92
-58 -7 -14 -3 -28 18 -59 22 -30 28 -52 28 -91 1 -47 -4 -60 -54 -131 -30 -44
-69 -95 -87 -114 l-32 -34 -103 7 c-181 13 -192 20 -448 305 -62 69 -117 127
-122 129 -21 8 -28 -29 -28 -162 l0 -138 -54 61 c-30 33 -57 72 -61 88 -3 15
-20 49 -36 75 -18 29 -28 59 -27 75 2 19 -3 29 -21 38 -22 11 -25 19 -26 86
-1 51 -6 81 -18 97 -9 14 -14 34 -11 50 5 22 1 28 -25 38 -27 10 -32 9 -42 -8
-5 -11 -9 -45 -7 -77 3 -53 1 -57 -19 -60 -17 -3 -21 1 -17 12 3 8 -5 28 -17
45 -18 25 -30 31 -60 31 -60 0 -90 -44 -49 -71 20 -13 20 -16 5 -58 -8 -24
-15 -56 -15 -71 0 -34 19 -90 37 -112 11 -12 12 -21 4 -36 -6 -12 -8 -28 -4
-37 5 -16 8 -15 23 5 l17 22 40 -25 c41 -26 47 -38 59 -127 7 -53 -24 -97 -80
-112 -53 -14 -51 -28 5 -28 49 0 117 33 128 63 5 13 16 29 25 36 9 7 16 20 16
27 0 31 105 -1 143 -44 26 -28 18 -56 -16 -60 -31 -4 -35 -17 -9 -31 32 -17
63 -1 83 43 21 47 32 34 27 -30 l-3 -39 -250 -3 c-137 -1 -260 0 -272 3 l-23
5 0 636 0 636 128 -118 c199 -185 179 -169 199 -153 12 10 10 4 -6 -19 -21
-30 -21 -32 -4 -38 42 -13 73 -37 168 -128 98 -94 196 -185 447 -419 69 -64
130 -117 135 -117 8 1 62 70 81 106 10 18 4 26 -48 72 -36 32 -63 65 -70 87
-9 28 -19 37 -41 42 -20 4 -88 60 -207 171 -97 91 -178 169 -180 174 -2 4 19
8 48 8 28 0 49 4 46 8 -3 5 -32 27 -66 50 l-60 42 0 -42 0 -42 -60 59 c-34 33
-63 70 -66 83 -7 25 -15 27 -32 10 -9 -9 -12 -9 -12 3 0 7 -90 97 -200 199
l-199 185 -1 47 c0 36 4 47 17 50 9 2 237 3 507 2 424 -1 500 -3 556 -18z
m2008 -127 c2 -90 -1 -139 -8 -139 -5 0 -11 -10 -12 -22 -1 -13 -4 4 -7 37
l-6 60 -90 45 c-49 25 -111 57 -137 73 -44 26 -53 27 -175 27 -127 0 -129 0
-163 -29 -20 -16 -66 -42 -103 -59 l-67 -31 0 -64 0 -64 -57 4 c-32 2 -67 8
-79 14 -15 8 -36 7 -77 -4 -31 -8 -57 -11 -59 -6 -12 36 -150 -58 -182 -123
-20 -38 -20 -38 1 -38 13 0 14 -3 5 -12 -19 -19 -14 -38 9 -38 11 0 29 -5 41
-11 25 -14 148 -13 162 1 5 5 27 10 48 10 51 0 80 18 67 42 -9 16 -5 18 33 19
24 0 53 2 66 3 12 2 22 -1 22 -6 0 -4 21 -8 48 -8 33 0 43 -3 32 -10 -8 -5
-15 -15 -15 -22 -1 -7 -7 -12 -14 -10 -14 3 -171 -124 -171 -138 0 -5 -11 -20
-25 -34 -24 -25 -25 -27 -10 -55 8 -17 15 -36 15 -43 0 -8 16 -38 36 -68 19
-30 40 -66 46 -80 10 -24 11 -24 18 -5 12 29 12 -53 0 -135 -6 -46 -6 -66 2
-71 7 -5 2 -16 -15 -32 -15 -13 -30 -38 -33 -56 -4 -17 -11 -34 -15 -37 -29
-17 4 -24 121 -24 72 0 130 4 130 9 0 5 -7 14 -15 21 -8 7 -15 22 -15 33 0 11
-10 31 -22 44 -20 21 -20 25 -7 50 8 14 42 51 76 81 61 54 70 72 34 72 -10 0
-26 9 -36 20 -10 11 -25 18 -34 15 -9 -2 -22 0 -30 4 -12 8 -12 12 -2 25 15
18 7 50 -12 44 -6 -3 -15 -29 -18 -59 -5 -40 -6 -33 -3 25 2 43 8 84 12 90 5
6 17 45 27 86 10 41 20 78 22 83 8 14 161 -202 181 -256 11 -29 26 -90 33
-134 10 -69 10 -93 -5 -174 -29 -156 -84 -249 -190 -320 -101 -68 -157 -79
-392 -79 l-203 0 -5 33 c-3 17 -7 70 -10 117 -7 107 -28 180 -61 208 -15 13
-25 33 -25 48 0 32 -17 64 -34 64 -23 0 -49 -39 -50 -75 -1 -37 -28 -57 -49
-36 -13 13 -47 100 -47 121 0 9 30 27 83 48 76 29 92 32 195 32 108 0 152 9
152 30 0 6 -28 44 -62 85 -109 130 -146 188 -175 265 -25 67 -28 88 -28 195 0
117 1 122 36 195 20 41 49 90 64 109 70 82 176 142 285 161 25 4 248 6 495 3
l450 -4 3 -140z m-3595 -84 c31 -110 70 -254 87 -320 17 -66 72 -266 122 -445
49 -179 105 -381 124 -449 19 -67 34 -132 34 -142 0 -18 -11 -19 -245 -19
l-244 0 -15 28 c-7 15 -18 44 -24 64 l-10 37 42 6 c22 4 65 16 94 27 101 38
195 162 209 276 l6 52 -345 0 -345 0 8 -50 c8 -52 34 -115 68 -166 l21 -31
-132 -7 c-106 -6 -136 -11 -149 -24 -8 -9 -26 -55 -39 -102 -13 -47 -27 -91
-33 -97 -14 -19 -496 -19 -503 0 -2 7 26 125 64 262 38 138 73 266 77 285 9
42 18 53 170 193 66 61 160 148 210 195 49 47 100 89 112 95 13 6 23 17 23 26
0 9 37 50 83 91 46 41 168 155 272 253 103 98 191 174 195 170 4 -4 32 -98 63
-208z m1136 -557 c31 -28 88 -81 126 -118 39 -36 109 -101 158 -144 48 -44 87
-84 87 -90 -1 -15 -40 -64 -40 -49 0 6 5 15 10 18 15 9 12 25 -5 25 -8 0 -15
-4 -15 -10 0 -5 -5 -10 -10 -10 -6 0 -3 11 6 25 15 22 15 25 1 25 -9 0 -19 -4
-22 -10 -3 -5 -11 -10 -17 -10 -6 0 -3 9 7 20 24 26 11 39 -15 15 -21 -19 -29
-8 -8 13 17 17 0 28 -22 14 -22 -13 -27 -3 -8 16 6 6 9 15 5 19 -4 4 -13 1
-19 -5 -19 -19 -29 -14 -16 8 17 27 2 37 -22 15 -11 -10 -20 -13 -20 -7 0 7 5
12 10 12 6 0 10 7 10 15 0 17 -16 20 -25 5 -3 -5 -10 -10 -16 -10 -5 0 -4 9 3
20 17 28 2 37 -24 14 -23 -19 -23 -19 -5 2 31 37 20 58 -15 27 -20 -18 -25 -4
-6 15 17 17 3 25 -22 12 -19 -10 -20 -10 -8 9 17 28 3 38 -22 16 -24 -21 -27
-9 -4 16 9 10 11 20 6 23 -5 3 -15 -1 -22 -9 -7 -8 -17 -15 -23 -15 -7 0 -7 4
1 12 16 16 15 41 -2 35 -19 -8 -80 58 -73 77 9 24 15 21 76 -36z m-974 -375
c-13 -72 -56 -151 -111 -203 -54 -51 -82 -64 -69 -32 9 23 35 189 35 228 0 17
3 34 7 37 3 4 38 7 76 7 l69 0 -7 -37z m1937 -20 c20 -51 23 -73 22 -183 -1
-69 -6 -138 -12 -155 -8 -28 -10 -25 -17 37 -7 67 -24 96 -46 82 -8 -5 -10 0
-6 17 12 53 19 158 10 173 -13 23 -4 86 12 86 8 0 24 -26 37 -57z"/>
<path d="M2726 3655 c12 -19 15 -36 9 -71 -5 -39 -11 -47 -36 -56 -17 -6 -28
-15 -26 -22 2 -6 29 -28 60 -50 63 -41 133 -59 147 -36 7 11 14 11 35 2 14 -7
40 -12 56 -12 34 0 149 -28 278 -67 72 -22 85 -29 94 -54 9 -23 20 -30 60 -39
61 -13 104 -13 112 0 3 6 18 10 31 10 50 0 18 25 -114 91 -73 37 -143 75 -155
86 -19 18 -65 43 -296 165 -29 15 -64 39 -77 53 -21 23 -30 25 -109 25 l-85 0
16 -25z"/>
<path d="M6465 2918 c-27 -11 -71 -20 -98 -20 -56 -2 -67 -17 -67 -93 0 -56
20 -69 104 -63 70 4 149 38 173 74 14 22 13 26 -13 69 -16 24 -33 46 -39 48
-5 2 -32 -5 -60 -15z"/>
<path d="M2915 2710 c-26 -28 -30 -29 -39 -13 -26 50 -61 29 -53 -31 6 -41 5
-41 -96 -138 -56 -54 -96 -98 -89 -98 7 0 37 22 65 49 29 27 65 53 80 56 l27
7 0 -59 c0 -53 -3 -62 -31 -89 -50 -46 -69 -98 -62 -169 4 -48 2 -63 -11 -74
-25 -21 -19 -33 17 -29 l32 3 6 75 c4 54 6 62 7 29 1 -30 8 -52 20 -62 23 -21
29 -21 35 1 4 13 5 11 6 -5 1 -28 35 -31 69 -7 18 12 22 25 22 67 l1 52 49
-52 c27 -29 50 -63 52 -74 3 -25 33 -47 45 -35 4 4 -23 67 -60 139 -81 160
-97 204 -97 273 0 29 -8 69 -17 89 l-17 35 39 40 c21 22 36 42 34 45 -3 3 -18
-9 -34 -25z"/>
<path d="M6316 2597 c-10 -8 -18 -26 -18 -40 0 -16 -6 -27 -14 -27 -28 0 -30
-92 -3 -130 8 -11 12 -12 16 -2 10 25 25 12 20 -17 -4 -21 -2 -31 9 -35 29
-11 62 -6 85 13 23 18 23 20 6 38 -22 26 -22 47 1 38 33 -13 37 -10 40 25 7
69 -30 137 -53 100 -11 -18 -26 0 -15 19 5 10 6 21 3 25 -11 11 -59 6 -77 -7z"/>
<path d="M5274 1930 c-25 -10 -54 -47 -54 -69 0 -8 10 -25 21 -38 18 -18 20
-25 9 -38 -18 -21 -33 -19 -25 4 4 14 0 21 -14 26 -12 3 -25 23 -34 48 -7 23
-20 43 -29 45 -13 3 -13 -5 -1 -65 8 -37 12 -81 10 -98 -2 -16 1 -45 8 -64 7
-23 9 -52 4 -85 -7 -40 -5 -51 8 -61 15 -11 15 -28 4 -190 -8 -98 -9 -180 -5
-185 5 -4 18 -10 29 -12 14 -2 20 -11 20 -28 0 -19 4 -24 20 -22 11 2 48 4 82
5 57 2 63 0 68 -20 3 -14 13 -23 25 -23 30 0 26 43 -16 162 -28 81 -37 124
-41 201 -3 53 -3 97 0 97 4 0 22 -8 42 -17 19 -9 38 -13 42 -9 11 10 17 158 9
201 -7 34 -37 72 -89 112 -23 18 -26 25 -18 41 20 38 -34 98 -75 82z"/>
<path d="M4941 1521 l-95 -6 42 -28 c51 -33 95 -98 95 -138 l0 -29 63 0 c57 0
64 2 88 31 37 44 36 101 -3 140 -16 16 -38 29 -49 29 -11 0 -26 1 -34 3 -7 2
-55 1 -107 -2z"/>
<path d="M3219 1378 c-35 -120 -86 -328 -81 -333 3 -3 21 -5 40 -5 31 0 34 -2
28 -22 -15 -55 -25 -119 -20 -133 5 -13 52 -15 345 -15 l339 0 0 48 c0 93 -58
215 -132 277 -101 85 -224 102 -342 47 -38 -18 -70 -31 -71 -30 -1 2 -15 54
-31 117 -16 63 -34 116 -41 118 -7 3 -20 -24 -34 -69z m472 -166 c84 -54 151
-166 164 -274 l7 -58 -76 0 c-59 0 -76 3 -76 14 0 8 -9 17 -20 21 -34 11 -70
63 -70 102 0 37 23 73 47 73 18 0 17 6 -12 80 -14 35 -25 65 -25 67 0 9 21 0
61 -25z"/>
</g>
</svg>
